<?xml version="1.0" encoding="UTF-8" standalone="no"?>
<!-- Created with Inkscape (http://www.inkscape.org/) -->

<svg
   xmlns:dc="http://purl.org/dc/elements/1.1/"
   xmlns:cc="http://creativecommons.org/ns#"
   xmlns:rdf="http://www.w3.org/1999/02/22-rdf-syntax-ns#"
   xmlns:svg="http://www.w3.org/2000/svg"
   xmlns="http://www.w3.org/2000/svg"
   xmlns:sodipodi="http://sodipodi.sourceforge.net/DTD/sodipodi-0.dtd"
   xmlns:inkscape="http://www.inkscape.org/namespaces/inkscape"
   width="1600px"
   height="1200px"
   id="svg2858"
   version="1.1"
   inkscape:version="0.47 r22583"
   sodipodi:docname="Albacore Logo 2.svg"
   inkscape:export-filename="/Users/derickbailey/Desktop/AlbacoreLogo.png"
   inkscape:export-xdpi="27.139999"
   inkscape:export-ydpi="27.139999">
  <defs
     id="defs2860">
    <inkscape:perspective
       sodipodi:type="inkscape:persp3d"
       inkscape:vp_x="0 : 600 : 1"
       inkscape:vp_y="0 : 1000 : 0"
       inkscape:vp_z="1600 : 600 : 1"
       inkscape:persp3d-origin="800 : 400 : 1"
       id="perspective2866" />
  </defs>
  <sodipodi:namedview
     id="base"
     pagecolor="#ffffff"
     bordercolor="#666666"
     borderopacity="1.0"
     inkscape:pageopacity="0.0"
     inkscape:pageshadow="2"
     inkscape:zoom="0.5"
     inkscape:cx="318"
     inkscape:cy="1143"
     inkscape:current-layer="layer1"
     inkscape:document-units="px"
     showgrid="false"
     inkscape:window-width="1920"
     inkscape:window-height="1058"
     inkscape:window-x="1920"
     inkscape:window-y="0"
     inkscape:window-maximized="0" />
  <metadata
     id="metadata2863">
    <rdf:RDF>
      <cc:Work
         rdf:about="">
        <dc:format>image/svg+xml</dc:format>
        <dc:type
           rdf:resource="http://purl.org/dc/dcmitype/StillImage" />
        <dc:title></dc:title>
      </cc:Work>
    </rdf:RDF>
  </metadata>
  <g
     id="layer1"
     inkscape:label="Layer 1"
     inkscape:groupmode="layer">
    <g
       id="g5581">
      <path
         d="m 563.41892,657.97963 -6.4144,-18.77724 -54.61401,0 -6.4144,19.18544 c -2.5047,7.48369 -4.64283,12.55218 -6.4144,15.20548 -1.77162,2.58527 -4.67337,3.87791 -8.70525,3.87791 -3.42103,0 -6.44495,-1.39469 -9.07179,-4.18406 -2.62686,-2.78937 -3.94028,-5.95292 -3.94028,-9.49067 0,-2.04099 0.30545,-4.15003 0.91635,-6.32711 0.61088,-2.17706 1.61886,-5.20454 3.02393,-9.08247 l 34.36284,-97.15181 c 0.97739,-2.78924 2.13809,-6.12288 3.4821,-10.00092 1.40502,-3.9458 2.87116,-7.2114 4.39845,-9.79682 1.58827,-2.58512 3.63477,-4.66014 6.13949,-6.22506 2.5657,-1.63266 5.71181,-2.44905 9.43833,-2.4492 3.78748,1.5e-4 6.93359,0.81654 9.43833,2.4492 2.56568,1.56492 4.61218,3.60592 6.13949,6.12301 1.58825,2.51738 2.90167,5.23872 3.94028,8.16402 1.09952,2.85754 2.47403,6.70142 4.12354,11.53167 l 35.09592,96.53951 c 2.7489,7.34763 4.12341,12.68826 4.12354,16.02188 -1.3e-4,3.46972 -1.31355,6.66729 -3.94027,9.59272 -2.56588,2.8574 -5.68145,4.28611 -9.3467,4.28611 -2.13824,0 -3.97093,-0.44222 -5.49805,-1.32666 -1.52735,-0.8164 -2.81023,-1.93895 -3.84864,-3.36765 -1.03863,-1.49674 -2.16879,-3.74183 -3.39047,-6.73532 -1.1608,-3.06149 -2.16878,-5.74881 -3.02393,-8.06196 m -53.88094,-41.53444 40.1358,0 -20.25116,-61.74038 -19.88464,61.74038"
         id="path2971"
         style="font-size:379.51000977px;font-style:normal;font-variant:normal;font-weight:bold;font-stretch:normal;fill:#000000;fill-opacity:1;stroke:#000000;stroke-width:5.21846294;stroke-miterlimit:4;stroke-opacity:1;stroke-dasharray:none;font-family:Arial Rounded MT Bold;-inkscape-font-specification:'Arial Rounded MT Bold, Bold'" />
      <path
         d="m 640.4274,541.13213 0,108.88758 55.16383,0 c 4.39834,3e-5 7.75826,1.19061 10.07976,3.57176 2.38239,2.38119 3.57363,5.37466 3.57374,8.98042 -1.1e-4,3.67381 -1.16081,6.66728 -3.4821,8.98042 -2.32151,2.2451 -5.71197,3.36765 -10.1714,3.36765 l -65.70176,0 c -5.92571,0 -10.20197,-1.46271 -12.8288,-4.38815 -2.56577,-2.92544 -3.84866,-7.65376 -3.84864,-14.18499 l 0,-115.21469 c -2e-5,-6.12287 1.22178,-10.71512 3.66538,-13.77678 2.50464,-3.06136 5.77293,-4.5921 9.80486,-4.59225 4.09296,1.5e-4 7.39179,1.53089 9.8965,4.59225 2.56572,2.99362 3.84859,7.58588 3.84863,13.77678"
         id="path2973"
         style="font-size:379.51000977px;font-style:normal;font-variant:normal;font-weight:bold;font-stretch:normal;fill:#000000;fill-opacity:1;stroke:#000000;stroke-width:5.21846294;stroke-miterlimit:4;stroke-opacity:1;stroke-dasharray:none;font-family:Arial Rounded MT Bold;-inkscape-font-specification:'Arial Rounded MT Bold, Bold'" />
      <path
         d="m 783.34113,674.91996 -41.05215,0 c -5.9257,0 -10.17142,-1.46271 -12.73716,-4.38815 -2.50468,-2.99347 -3.75702,-7.72179 -3.757,-14.18499 l 0,-112.45933 c -2e-5,-6.59911 1.28286,-11.32743 3.84864,-14.18498 2.62683,-2.92529 6.842,-4.38801 12.64552,-4.38816 l 43.52627,0 c 6.41432,1.5e-4 11.97346,0.44237 16.67744,1.32665 4.70382,0.88459 8.91898,2.58542 12.64553,5.10252 3.17653,2.10917 5.98668,4.7965 8.43033,8.06196 2.44349,3.1977 4.30669,6.76946 5.5897,10.71527 1.28275,3.87803 1.9242,7.99406 1.92431,12.34808 -1.1e-4,14.96746 -6.71992,25.92084 -20.1595,32.86017 17.65474,6.25915 26.48214,18.43713 26.48229,36.53398 -1.5e-4,8.36814 -1.92446,15.91986 -5.77297,22.65514 -3.84878,6.6673 -9.04136,11.59972 -15.57785,14.79728 -4.09305,1.90494 -8.79697,3.26561 -14.11165,4.08201 -5.31487,0.74837 -11.51545,1.12255 -18.60175,1.12255 m -2.01596,-66.43469 -28.31498,0 0,43.67749 29.23133,0 c 18.38785,3e-5 27.5818,-7.3816 27.58191,-22.14489 -1.1e-4,-7.55166 -2.3826,-13.02835 -7.14747,-16.43008 -4.76507,-3.40161 -11.88199,-5.10245 -21.35079,-5.10252 m -28.31498,-60.41372 0,38.67703 24.92452,0 c 6.78086,9e-5 12.00401,-0.71427 15.66946,-2.14305 3.72637,-1.42861 6.56703,-4.14996 8.52198,-8.16402 1.52715,-2.85731 2.29077,-6.05488 2.29086,-9.59272 -9e-5,-7.5516 -2.41313,-12.55206 -7.23911,-15.00138 -4.82615,-2.51711 -12.18743,-3.77573 -22.08385,-3.77586 l -22.08386,0"
         id="path2975"
         style="font-size:379.51000977px;font-style:normal;font-variant:normal;font-weight:bold;font-stretch:normal;fill:#000000;fill-opacity:1;stroke:#000000;stroke-width:5.21846294;stroke-miterlimit:4;stroke-opacity:1;stroke-dasharray:none;font-family:Arial Rounded MT Bold;-inkscape-font-specification:'Arial Rounded MT Bold, Bold'" />
      <path
         d="m 939.4859,657.97963 -6.41443,-18.77724 -54.61398,0 -6.41443,19.18544 c -2.50471,7.48369 -4.64282,12.55218 -6.41438,15.20548 -1.77162,2.58527 -4.6734,3.87791 -8.70523,3.87791 -3.42107,0 -6.44496,-1.39469 -9.07183,-4.18406 -2.62682,-2.78937 -3.94025,-5.95292 -3.94025,-9.49067 0,-2.04099 0.30543,-4.15003 0.91631,-6.32711 0.61092,-2.17706 1.61887,-5.20454 3.02394,-9.08247 l 34.36285,-97.15181 c 0.97742,-2.78924 2.13811,-6.12288 3.48212,-10.00092 1.40502,-3.9458 2.87115,-7.2114 4.39843,-9.79682 1.5883,-2.58512 3.63477,-4.66014 6.13947,-6.22506 2.56571,-1.63266 5.71182,-2.44905 9.43838,-2.4492 3.78745,1.5e-4 6.93356,0.81654 9.43832,2.4492 2.56566,1.56492 4.61218,3.60592 6.13947,6.12301 1.58824,2.51738 2.90167,5.23872 3.9403,8.16402 1.09953,2.85754 2.47402,6.70142 4.12353,11.53167 l 35.09593,96.53951 c 2.74888,7.34763 4.12342,12.68826 4.12353,16.02188 -1.1e-4,3.46972 -1.31354,6.66729 -3.94025,9.59272 -2.56592,2.8574 -5.68145,4.28611 -9.34674,4.28611 -2.13821,0 -3.97088,-0.44222 -5.49802,-1.32666 -1.52739,-0.8164 -2.81024,-1.93895 -3.84866,-3.36765 -1.03864,-1.49674 -2.1688,-3.74183 -3.39044,-6.73532 -1.16085,-3.06149 -2.16879,-5.74881 -3.02394,-8.06196 m -53.88095,-41.53444 40.13578,0 -20.25114,-61.74038 -19.88464,61.74038"
         id="path2977"
         style="font-size:379.51000977px;font-style:normal;font-variant:normal;font-weight:bold;font-stretch:normal;fill:#000000;fill-opacity:1;stroke:#000000;stroke-width:5.21846294;stroke-miterlimit:4;stroke-opacity:1;stroke-dasharray:none;font-family:Arial Rounded MT Bold;-inkscape-font-specification:'Arial Rounded MT Bold, Bold'" />
      <path
         d="m 1098.4713,627.67071 c -10e-5,4.76239 -1.0692,9.93293 -3.2072,15.51164 -2.0771,5.51074 -5.376,10.9534 -9.8965,16.32803 -4.5207,5.30662 -10.2937,9.62674 -17.3189,12.96038 -7.0253,3.33364 -15.2114,5.00046 -24.5579,5.00046 -7.0865,0 -13.5314,-0.74837 -19.3349,-2.2451 -5.8035,-1.49674 -11.0877,-3.80987 -15.8527,-6.93942 -4.7039,-3.19756 -9.04127,-7.38162 -13.01205,-12.55218 -3.54323,-4.69428 -6.56712,-9.93285 -9.07178,-15.71573 -2.5047,-5.85084 -4.39848,-12.07589 -5.68134,-18.67519 -1.2218,-6.59919 -1.83272,-13.60662 -1.83267,-21.02234 -5e-5,-12.04184 1.55776,-22.82514 4.67334,-32.34992 3.17664,-9.52457 7.69723,-17.65456 13.56185,-24.39 5.86455,-6.80321 12.73715,-11.97375 20.61775,-15.51164 7.8805,-3.53758 16.2803,-5.30645 25.1994,-5.3066 10.8738,1.5e-4 20.5565,2.41533 29.0481,7.24556 8.4913,4.83052 14.9973,10.81746 19.5181,17.96084 4.5205,7.0756 6.7807,13.77689 6.7809,20.10389 -2e-4,3.46981 -1.0998,6.53132 -3.2989,9.18452 -2.1993,2.6534 -4.8567,3.98005 -7.9722,3.97996 -3.4821,9e-5 -6.109,-0.91836 -7.8805,-2.75536 -1.7106,-1.8368 -3.6349,-5.00036 -5.7729,-9.49067 -3.5433,-7.41553 -7.728,-12.96025 -12.5539,-16.63418 -4.7651,-3.67369 -10.6603,-5.51059 -17.6854,-5.51071 -11.1795,1.2e-4 -20.0986,4.72844 -26.7573,14.18498 -6.5977,9.45675 -9.8965,22.89335 -9.8965,40.30983 0,11.63379 1.4662,21.32855 4.3985,29.08431 2.9323,7.68782 7.0863,13.43664 12.4623,17.24649 5.3758,3.80989 11.668,5.71483 18.8766,5.71481 7.8194,2e-5 14.4171,-2.14303 19.793,-6.42917 5.4369,-4.35411 9.5299,-10.71523 12.279,-19.08338 1.1606,-3.9459 2.5962,-7.14347 4.3068,-9.59272 1.7104,-2.51718 4.4595,-3.7758 8.2471,-3.77586 3.2376,6e-5 6.0172,1.25868 8.3387,3.77586 2.3213,2.51729 3.482,5.64682 3.4821,9.38861"
         id="path2979"
         style="font-size:379.51000977px;font-style:normal;font-variant:normal;font-weight:bold;font-stretch:normal;fill:#000000;fill-opacity:1;stroke:#000000;stroke-width:5.21846294;stroke-miterlimit:4;stroke-opacity:1;stroke-dasharray:none;font-family:Arial Rounded MT Bold;-inkscape-font-specification:'Arial Rounded MT Bold, Bold'" />
      <g
         transform="matrix(0.46475817,0.23732551,-0.23732551,0.46475817,479.50208,-0.32839737)"
         id="g3909">
        <path
           sodipodi:type="arc"
           style="fill:#000000;fill-opacity:1;stroke:none"
           id="path3821"
           sodipodi:cx="1241"
           sodipodi:cy="411"
           sodipodi:rx="127"
           sodipodi:ry="149"
           d="m 1368,411 c 0,82.29043 -56.8598,149 -127,149 -70.1402,0 -127,-66.70957 -127,-149 0,-82.29043 56.8598,-149 127,-149 70.1402,0 127,66.70957 127,149 z"
           transform="matrix(0.634641,0,0,0.72885509,937.41051,109.44056)" />
        <path
           style="font-size:379.51000977px;font-style:normal;font-variant:normal;font-weight:bold;font-stretch:normal;fill:#ffffff;fill-opacity:1;stroke:#000000;stroke-width:10;stroke-miterlimit:4;stroke-opacity:1;stroke-dasharray:none;font-family:Arial Rounded MT Bold;-inkscape-font-specification:'Arial Rounded MT Bold, Bold'"
           id="path2981"
           d="m 1722.1645,263.86156 c 26.6905,2.9e-4 49.5765,6.06252 68.6582,18.18672 19.1982,11.99436 33.7142,29.13809 43.5478,51.43124 9.8331,22.16322 14.7498,48.23734 14.7501,78.22243 -3e-4,22.16314 -2.6928,42.3054 -8.0774,60.42683 -5.3853,18.1216 -13.4626,33.83125 -24.2323,47.12902 -10.7702,13.29783 -23.9984,23.46674 -39.6848,30.50674 -15.6868,7.04002 -33.6561,10.56003 -53.9081,10.56003 -20.1351,0 -38.163,-3.5852 -54.0836,-10.75558 -15.9208,-7.30075 -29.2075,-17.53484 -39.8603,-30.7023 -10.6529,-13.1674 -18.7303,-29.00743 -24.2323,-47.52014 -5.385,-18.51253 -8.0774,-38.52442 -8.0774,-60.03571 0,-22.03248 2.8095,-42.23993 8.4286,-60.62238 5.7361,-18.38205 13.9891,-34.02652 24.7591,-46.93346 10.7698,-12.90644 23.881,-22.74942 39.3335,-29.52897 15.4524,-6.90936 33.012,-10.36418 52.6789,-10.36447 m 74.1016,147.44928 c -2e-4,-20.98951 -3.0439,-39.17622 -9.131,-54.56014 -6.0875,-15.38353 -14.8088,-26.98652 -26.1638,-34.80899 -11.2384,-7.95236 -24.174,-11.92867 -38.8068,-11.92891 -10.4189,2.4e-4 -20.0767,2.21654 -28.9734,6.64889 -8.7799,4.30247 -16.389,10.62545 -22.8274,18.96894 -6.3216,8.34394 -11.3554,19.03433 -15.1014,32.0712 -3.6291,12.90688 -5.4435,27.4432 -5.4434,43.60901 -10e-5,16.29647 1.8143,31.02834 5.4434,44.19568 3.746,13.16753 8.9554,24.11866 15.6281,32.85342 6.7896,8.60452 14.5158,15.05786 23.1787,19.36005 8.7797,4.30227 18.379,6.45339 28.7978,6.45335 13.3451,4e-5 25.5783,-3.71552 36.6996,-11.1467 11.238,-7.43106 20.1348,-18.90368 26.6907,-34.41786 6.6723,-15.51402 10.0087,-34.61332 10.0089,-57.29794" />
      </g>
      <path
         d="m 1308.3138,610.93448 -9.53,0 0,48.06565 c -10e-5,6.32712 -1.2523,10.98742 -3.757,13.98088 -2.5047,2.99347 -5.773,4.49021 -9.8048,4.49021 -4.3374,0 -7.6973,-1.56477 -10.0798,-4.69431 -2.3825,-3.12954 -3.5738,-7.72179 -3.5738,-13.77678 l 0,-115.11264 c 0,-6.53108 1.3135,-11.2594 3.9403,-14.18498 2.6268,-2.92529 6.8726,-4.38801 12.7371,-4.38816 l 44.2594,0 c 6.1089,1.5e-4 11.332,0.3063 15.6695,0.91846 4.3372,0.54441 8.247,1.70097 11.7291,3.4697 4.2151,1.97312 7.9416,4.7965 11.1795,8.47017 3.2375,3.67394 5.6812,7.96004 7.3307,12.85832 1.7104,4.8305 2.5656,9.96702 2.5657,15.40959 -1e-4,11.15759 -2.8407,20.06996 -8.522,26.73716 -5.6203,6.66735 -14.1728,11.39567 -25.6575,14.18497 4.8259,2.85748 9.4382,7.07555 13.8368,12.65423 4.3983,5.57879 8.308,11.53172 11.7291,17.85878 3.482,6.25912 6.17,11.9399 8.0638,17.04239 1.9548,5.03449 2.9322,8.5042 2.9323,10.40912 -10e-5,1.97298 -0.5804,3.94595 -1.741,5.91892 -1.0997,1.90494 -2.627,3.40167 -4.5817,4.49021 -1.955,1.15656 -4.2153,1.73485 -6.7809,1.73485 -3.0546,0 -5.6204,-0.8164 -7.6974,-2.4492 -2.0771,-1.56477 -3.8793,-3.57176 -5.4063,-6.02097 -1.4663,-2.44919 -3.4823,-6.05496 -6.0479,-10.81732 l -10.9045,-20.20594 c -3.9098,-7.41561 -7.4224,-13.06238 -10.5379,-16.94033 -3.0546,-3.87786 -6.1701,-6.53116 -9.3467,-7.95992 -3.1767,-1.42865 -7.1781,-2.143 -12.0041,-2.14306 m 15.5778,-62.86293 -25.1078,0 0,41.12624 24.3747,0 c 6.5366,8e-5 12.0346,-0.61222 16.4942,-1.83691 4.4594,-1.29255 7.8499,-3.4356 10.1714,-6.42916 2.3824,-3.06141 3.5737,-7.24547 3.5737,-12.55218 0,-4.14993 -0.947,-7.78972 -2.8406,-10.91937 -1.8939,-3.19746 -4.5207,-5.57862 -7.8805,-7.14352 -3.1768,-1.4966 -9.4385,-2.24497 -18.7851,-2.2451"
         id="path2983"
         style="font-size:379.51000977px;font-style:normal;font-variant:normal;font-weight:bold;font-stretch:normal;fill:#000000;fill-opacity:1;stroke:#000000;stroke-width:5.21846294;stroke-miterlimit:4;stroke-opacity:1;stroke-dasharray:none;font-family:Arial Rounded MT Bold;-inkscape-font-specification:'Arial Rounded MT Bold, Bold'" />
      <g
         transform="matrix(0.52184629,0,0,0.52184629,536.95392,385.06792)"
         id="g3811">
        <g
           id="g3791"
           transform="matrix(1,0,0,1.1046598,-6.13601,-23.416496)"
           style="fill:#000000;fill-opacity:1">
          <path
             sodipodi:nodetypes="cssscccccccsssscsc"
             id="path2985"
             d="m 1948.0569,144.78045 c 0,0 -59.6693,53.14301 -97.8949,81.113 -38.2256,27.97001 -125.3296,71.22021 -131.4589,82.04535 -7.2379,12.78303 -2.3153,52.03585 -0.9323,66.67086 0.8706,9.21371 109.0995,3.72933 109.0995,3.72933 7.9602,1.7e-4 13.8719,2.02091 17.7352,6.06224 3.98,3.91128 5.9701,9.12611 5.9703,15.64448 l -183.0926,-1.93765 -0.9323,-99.3604 c 0,-8.34346 1.1121,-15.12273 3.3363,-20.33783 2.2242,-5.34492 7.5423,-11.98785 12.2249,-14.33481 4.7996,-2.47676 10.0813,-6.54396 37.8411,-16.76824 27.7598,-10.22427 63.8622,-27.1542 114.0519,-62.93248 50.1897,-35.77829 69.9176,-62.42756 88.5604,-79.53979 18.643,-17.112246 17.8594,-12.062179 22.6944,-14.159717 4.835,-2.097537 14.4572,2.086211 18.4376,6.257787 4.097,4.04177 6.1456,9.38696 6.1458,16.0356 -2e-4,6.77954 -4.8458,14.11977 -10.8075,21.08839"
             style="font-size:379.51000977px;font-style:normal;font-variant:normal;font-weight:bold;font-stretch:normal;fill:#000000;fill-opacity:1;stroke:none;font-family:Arial Rounded MT Bold;-inkscape-font-specification:'Arial Rounded MT Bold, Bold'" />
          <path
             style="font-size:379.51000977px;font-style:normal;font-variant:normal;font-weight:bold;font-stretch:normal;fill:#000000;fill-opacity:1;stroke:none;font-family:Arial Rounded MT Bold;-inkscape-font-specification:'Arial Rounded MT Bold, Bold'"
             d="m 1948.0569,650.11867 c 0,0 -59.6693,-53.14301 -97.8949,-81.113 -38.2256,-27.97001 -125.3296,-71.22021 -131.4589,-82.04535 -7.2379,-12.78303 -2.3153,-52.03585 -0.9323,-66.67086 0.8706,-9.21371 109.0995,-3.72933 109.0995,-3.72933 7.9602,-1.7e-4 13.8719,-2.02091 17.7352,-6.06224 3.98,-3.91128 5.9701,-9.12611 5.9703,-15.64448 l -183.0926,1.93765 -0.9323,99.3604 c 0,8.34346 1.1121,15.12273 3.3363,20.33783 2.2242,5.34492 7.5423,11.98785 12.2249,14.33481 4.7996,2.47676 10.0813,6.54396 37.8411,16.76824 27.7598,10.22427 63.8622,27.1542 114.0519,62.93248 50.1897,35.77829 69.9176,62.42756 88.5604,79.53979 18.643,17.11225 17.8594,12.06218 22.6944,14.15972 4.835,2.09754 14.4572,-2.08621 18.4376,-6.25779 4.097,-4.04177 6.1456,-9.38696 6.1458,-16.0356 -2e-4,-6.77954 -4.8458,-14.11977 -10.8075,-21.08839"
             id="path3005"
             sodipodi:nodetypes="cssscccccccsssscsc" />
        </g>
        <g
           id="g3807"
           transform="matrix(1,0,0,1.0261098,240,-9.8875395)">
          <path
             sodipodi:nodetypes="caaaac"
             id="path3007"
             d="m 1708.967,131.31641 c 0,0 -22.2053,23.55858 -32.9068,35.75504 -24.7822,28.24404 -51.4608,55.0118 -72.4467,86.61607 -10.0739,15.17106 -20.7502,30.87837 -25.2852,48.87329 -4.129,16.38369 -4.0793,34.25978 -1.0241,50.91372 3.6448,19.86762 15.461,38.83574 22.5799,55.68448"
             style="fill:none;stroke:#000000;stroke-width:5.18613625;stroke-linecap:butt;stroke-linejoin:miter;stroke-miterlimit:4;stroke-opacity:1;stroke-dasharray:none" />
          <path
             style="fill:none;stroke:#000000;stroke-width:5.18613625;stroke-linecap:butt;stroke-linejoin:miter;stroke-miterlimit:4;stroke-opacity:1;stroke-dasharray:none"
             d="m 1708.967,697.48424 c 0,0 -22.2053,-23.55858 -32.9068,-35.75504 -24.7822,-28.24405 -51.4608,-55.01181 -72.4467,-86.61607 -10.0739,-15.17106 -20.7502,-30.87838 -25.2852,-48.87329 -4.129,-16.3837 -4.0793,-34.25979 -1.0241,-50.91373 3.6448,-19.86762 15.461,-38.83574 22.5799,-55.68448"
             id="path3789"
             sodipodi:nodetypes="caaaac" />
        </g>
      </g>
    </g>
    <g
       id="g5572"
       transform="translate(-6,2)">
      <g
         style="fill:#000000;fill-opacity:1;stroke:#ffffff;stroke-opacity:1"
         transform="matrix(0.52184629,0,0,0.64219224,287.60287,337.4167)"
         id="g3997">
        <path
           style="fill:#000000;fill-opacity:1;stroke:#ffffff;stroke-width:10;stroke-linecap:butt;stroke-linejoin:miter;stroke-miterlimit:4;stroke-opacity:1;stroke-dasharray:none"
           d="m 364.62222,237.4321 c 0,0 -244.52197,-5.62625 -365.249998,10.5 -73.078596,9.76147 -146.125492,25.61149 -215.008572,51.89627 -65.63779,25.04642 -121.24143,46.60373 -185.74143,99.60373 0,0 86.19175,25.8701 130,36 77.96502,18.02806 236.000002,44 236.000002,44 0,0 -161.110212,-19.39916 -240.000002,-36 -42.19315,-8.87874 -124.22963,-33.89869 -124.22963,-33.89869 0,0 25.87605,37.40251 44.22963,51.89869 44.93663,35.49222 100.96778,61.70462 156.19165,81.82806 34.05622,12.41 70.38642,16.94583 106.206582,23.3382 40.274393,7.18726 80.845173,14.23953 121.955568,16.83374 61.701739,3.89359 124.76153,7.01658 185.6462,-2 23.71509,-3.51204 48.09601,-7.26998 68,-20 17.91042,-11.45499 34.75406,-28.01259 42,-48 9.77282,-26.95764 8.43467,-59.29157 -2,-86 -8.07902,-20.67894 -25.08286,-38.37972 -44,-50 -18.1866,-11.17153 -62,-16 -62,-16 0,0 20.60758,-27.06833 32.33704,-39.33827 13.89202,-14.53215 28.75545,-28.26998 44.81969,-40.35766 19.11935,-14.38653 40.69989,-25.17293 60.9288,-37.95233 3.31819,-2.09623 9.41447,-6.35174 9.91447,-6.35174 z"
           id="path3888"
           sodipodi:nodetypes="caacacacaaaaaaaaacaaac" />
        <path
           style="fill:#000000;fill-opacity:1;stroke:#ffffff;stroke-width:10;stroke-linecap:butt;stroke-linejoin:miter;stroke-miterlimit:4;stroke-opacity:1;stroke-dasharray:none"
           d="m -65.377778,425.4321 c 0,0 9.582514,30.47536 19,43 6.144628,8.17195 14.565912,14.74752 23.511186,19.69922 18.239176,10.09637 59.488814,19.30078 59.488814,19.30078"
           id="path3892"
           sodipodi:nodetypes="caaa" />
      </g>
      <g
         id="g5567">
        <g
           transform="matrix(0.25215042,0.12875885,-0.12875885,0.25215042,-69.293031,229.31228)"
           id="g5481"
           style="stroke-width:18.43178177;stroke-miterlimit:4;stroke-dasharray:none">
          <path
             sodipodi:type="arc"
             style="fill:#000000;fill-opacity:1;stroke:none"
             id="path5483"
             sodipodi:cx="1241"
             sodipodi:cy="411"
             sodipodi:rx="127"
             sodipodi:ry="149"
             d="m 1368,411 c 0,82.29043 -56.8598,149 -127,149 -70.1402,0 -127,-66.70957 -127,-149 0,-82.29043 56.8598,-149 127,-149 70.1402,0 127,66.70957 127,149 z"
             transform="matrix(0.634641,0,0,0.72885509,937.41051,109.44056)" />
          <path
             style="font-size:379.51000977px;font-style:normal;font-variant:normal;font-weight:bold;font-stretch:normal;fill:#ffffff;fill-opacity:1;stroke:#000000;stroke-width:18.43178177;stroke-miterlimit:4;stroke-opacity:1;stroke-dasharray:none;font-family:Arial Rounded MT Bold;-inkscape-font-specification:'Arial Rounded MT Bold, Bold'"
             id="path5485"
             d="m 1731.8023,282.7354 c 26.6905,2.9e-4 49.5765,6.06252 68.6582,18.18672 19.1982,11.99436 33.7142,29.13809 43.5478,51.43124 9.8331,22.16322 14.7498,48.23734 14.7501,78.22243 -3e-4,22.16314 -2.6928,42.3054 -8.0774,60.42683 -5.3853,18.1216 -13.4626,33.83125 -24.2323,47.12902 -10.7702,13.29783 -23.9984,23.46674 -39.6848,30.50674 -15.6868,7.04002 -33.6561,10.56003 -53.9081,10.56003 -20.1351,0 -38.163,-3.5852 -54.0836,-10.75558 -15.9208,-7.30075 -29.2075,-17.53484 -39.8603,-30.7023 -10.6529,-13.1674 -18.7303,-29.00743 -24.2323,-47.52014 -5.385,-18.51253 -8.0774,-38.52442 -8.0774,-60.03571 0,-22.03248 2.8095,-42.23993 8.4286,-60.62238 5.7361,-18.38205 13.9891,-34.02652 24.7591,-46.93346 10.7698,-12.90644 23.881,-22.74942 39.3335,-29.52897 15.4524,-6.90936 33.012,-10.36418 52.6789,-10.36447 m 74.1016,147.44928 c -2e-4,-20.98951 -3.0439,-39.17622 -9.131,-54.56014 -6.0875,-15.38353 -14.8088,-26.98652 -26.1638,-34.80899 -11.2384,-7.95236 -24.174,-11.92867 -38.8068,-11.92891 -10.4189,2.4e-4 -20.0767,2.21654 -28.9734,6.64889 -8.7799,4.30247 -16.389,10.62545 -22.8274,18.96894 -6.3216,8.34394 -11.3554,19.03433 -15.1014,32.0712 -3.6291,12.90688 -5.4435,27.4432 -5.4434,43.60901 -10e-5,16.29647 1.8143,31.02834 5.4434,44.19568 3.746,13.16753 8.9554,24.11866 15.6281,32.85342 6.7896,8.60452 14.5158,15.05786 23.1787,19.36005 8.7797,4.30227 18.379,6.45339 28.7978,6.45335 13.3451,4e-5 25.5783,-3.71552 36.6996,-11.1467 11.238,-7.43106 20.1348,-18.90368 26.6907,-34.41786 6.6723,-15.51402 10.0087,-34.61332 10.0089,-57.29794" />
        </g>
      </g>
    </g>
  </g>
</svg>
