<?xml version="1.0" encoding="UTF-8" standalone="no"?>
<!-- Created with Inkscape (http://www.inkscape.org/) -->

<svg
   xmlns:dc="http://purl.org/dc/elements/1.1/"
   xmlns:cc="http://creativecommons.org/ns#"
   xmlns:rdf="http://www.w3.org/1999/02/22-rdf-syntax-ns#"
   xmlns:svg="http://www.w3.org/2000/svg"
   xmlns="http://www.w3.org/2000/svg"
   xmlns:sodipodi="http://sodipodi.sourceforge.net/DTD/sodipodi-0.dtd"
   xmlns:inkscape="http://www.inkscape.org/namespaces/inkscape"
   width="1024px"
   height="768px"
   id="svg2954"
   version="1.1"
   inkscape:version="0.47 r22583"
   sodipodi:docname="New document 2">
  <defs
     id="defs2956">
    <inkscape:perspective
       sodipodi:type="inkscape:persp3d"
       inkscape:vp_x="0 : 384 : 1"
       inkscape:vp_y="0 : 1000 : 0"
       inkscape:vp_z="1024 : 384 : 1"
       inkscape:persp3d-origin="512 : 256 : 1"
       id="perspective2962" />
  </defs>
  <sodipodi:namedview
     id="base"
     pagecolor="#ffffff"
     bordercolor="#666666"
     borderopacity="1.0"
     inkscape:pageopacity="0.0"
     inkscape:pageshadow="2"
     inkscape:zoom="0.5"
     inkscape:cx="408.66494"
     inkscape:cy="457.6642"
     inkscape:current-layer="g3447"
     inkscape:document-units="px"
     showgrid="false"
     inkscape:object-paths="false"
     inkscape:window-width="1920"
     inkscape:window-height="1058"
     inkscape:window-x="1920"
     inkscape:window-y="0"
     inkscape:window-maximized="0" />
  <metadata
     id="metadata2959">
    <rdf:RDF>
      <cc:Work
         rdf:about="">
        <dc:format>image/svg+xml</dc:format>
        <dc:type
           rdf:resource="http://purl.org/dc/dcmitype/StillImage" />
        <dc:title></dc:title>
      </cc:Work>
    </rdf:RDF>
  </metadata>
  <g
     id="layer1"
     inkscape:label="Layer 1"
     inkscape:groupmode="layer">
    <g
       transform="translate(-400,10)"
       id="g3391">
      <path
         d="m 29.573637,352.27798 c 4.817324,-9.63079 12.552728,-17.52833 19.542606,-25.60813 14.022729,-16.4085 28.175161,-32.69595 43.293262,-48.10694 18.921085,-18.89165 39.418835,-36.17021 60.629905,-52.42309 14.37146,-10.36965 29.02621,-20.7546 45.37503,-27.82828 2.65585,-1.14912 5.39863,-2.08586 8.09795,-3.12878 16.14528,-5.12148 34.14627,-6.14576 50.68861,-2.15504 8.13493,1.96249 11.30149,3.78288 19.02224,7.18039 17.11523,8.66624 31.74134,21.47091 42.48811,37.39454 2.23479,3.31131 4.1122,6.85027 6.1683,10.2754 11.52103,21.62245 18.03594,45.39557 24.44818,68.90989 5.0166,17.14149 9.74771,34.38254 13.4249,51.86565 1.09554,5.58817 0.71373,2.97045 1.24569,7.83787 0,0 -17.60553,0.1557 -17.60553,0.1557 l 0,0 c -0.3153,-4.70156 -0.045,-2.14483 -0.93064,-7.65658 -3.22314,-17.48385 -7.77826,-34.68141 -12.6832,-51.76209 -6.37141,-23.37807 -12.83354,-47.02697 -24.44945,-68.44847 -2.05574,-3.36561 -3.93236,-6.84741 -6.16721,-10.09685 -10.79333,-15.69333 -25.47105,-28.19487 -42.56325,-36.5275 -7.9039,-3.29151 -10.84491,-4.96052 -19.14645,-6.73422 -2.93899,-0.62794 -7.31984,1.30019 -8.93072,-1.23695 -1.43721,-2.26361 8.49533,-2.805 8.04237,-0.1622 -0.93076,5.43051 -15.634,-3.83275 -16.21466,3.20865 -2.71366,0.99628 -5.47118,1.8804 -8.14099,2.98884 -16.50147,6.85097 -31.31205,17.12483 -45.78907,27.43018 -21.23572,16.11368 -41.74284,33.29181 -60.5698,52.18989 -14.995865,15.32582 -28.957158,31.58781 -42.703125,48.03826 -6.694131,7.89384 -14.146465,15.627 -18.763394,24.97309 0,0 -17.809664,-0.57323 -17.809664,-0.57323 z"
         id="path2964"
         style="fill:#000000;fill-opacity:1;fill-rule:nonzero;stroke:none" />
      <path
         d="m 86.839164,304.11044 c 15.263646,-7.99907 32.166806,-12.32779 48.701736,-16.83709 36.31384,-10.07164 73.72406,-14.87294 111.14775,-18.41719 39.13631,-3.1371 78.48088,-4.08037 117.72201,-2.74469 8.27718,0.37607 16.54595,0.92708 24.78416,1.81506 0,0 -17.41916,2.56305 -17.41916,2.56305 l 0,0 c -7.90535,-0.89351 -15.8414,-1.46479 -23.7886,-1.83492 -3.79016,-0.13269 -7.58311,-0.20107 -11.37047,-0.39806 -0.61666,-0.0321 2.46741,-0.0963 1.84992,-0.0971 -25.53063,-0.0332 -51.05192,0.80646 -76.49798,2.97023 -37.10565,3.45994 -74.20876,8.17831 -110.18407,18.2717 -16.03721,4.43938 -32.53172,8.66111 -47.27434,16.57429 0,0 -17.670956,-1.86525 -17.670956,-1.86525 z"
         id="path2966"
         style="fill:#000000;fill-opacity:1;fill-rule:nonzero;stroke:none" />
    </g>
    <path
       d="m 146.2407,201.32758 c -7.78315,3.32916 -14.75354,8.28336 -21.7045,13.04557 -17.21378,12.11725 -33.52556,25.42776 -49.57247,39.03197 -18.56832,15.6165 -35.63092,32.85047 -51.72019,50.97836 -10.17372,12.50703 -20.8149,25.17314 -27.55303,39.97833 -1.03381,2.27151 -1.80687,4.65287 -2.7103,6.97931 -2.06973,7.45192 -2.97618,15.63731 2.26974,22.08081 3.32203,4.08041 5.52494,4.68915 10.14091,7.27208 21.38493,8.00776 44.73475,7.91318 67.27165,8.09664 -0.42578,-0.0396 -1.70484,-0.10803 -1.27736,-0.11866 20.98198,-0.5216 41.96357,-0.90953 62.94446,-1.53075 0,0 16.33388,2.53776 16.33388,2.53776 l 0,0 c -31.4711,0.92149 -62.94591,1.96656 -94.43678,1.6982 -22.83127,-0.26441 -46.61262,-0.1346 -68.08332,-8.88489 -4.8153,-2.96993 -7.00215,-3.63211 -10.34922,-8.17602 -5.1929,-7.04979 -4.32976,-15.69705 -2.0818,-23.61706 0.93304,-2.38669 1.734,-4.82933 2.79912,-7.16008 6.83172,-14.94952 17.57877,-27.74507 27.86197,-40.38292 16.14844,-18.17233 33.23403,-35.48601 51.80774,-51.20774 15.93572,-13.61014 32.11877,-26.93914 49.09737,-39.24148 6.81293,-4.82334 13.63994,-9.77108 21.15246,-13.46533 0,0 17.80967,2.0859 17.80967,2.0859 z"
       id="path3414"
       style="fill:#000000;fill-opacity:1;fill-rule:nonzero;stroke:none" />
    <path
       style="fill:#000000;fill-opacity:1;fill-rule:nonzero;stroke:none"
       id="path2970"
       d="m 266.02115,223.50991 c -4.18543,14.41784 -10.80202,28.209 -16.74826,42.10407 -11.36712,24.82991 -21.95692,49.92039 -30.75031,75.57097 -4.42873,12.56552 -8.17002,25.30419 -11.13857,38.2036 -0.10431,0.35019 0.0935,1.0515 -0.31301,1.05059 -8.15968,-0.0183 -16.43283,0.25834 -24.44761,-1.10631 -1.12197,-0.19103 -0.003,-2.03629 0.0122,-3.05432 0.1035,-7.54468 1.38386,-14.44858 2.961,-21.88041 7.70429,-26.2436 19.51544,-51.59077 34.42336,-75.24112 3.55145,-5.63414 7.51173,-11.05567 11.2676,-16.58351 14.77172,-20.27024 32.32421,-39.0484 55.31249,-52.27653 13.36149,-7.68859 18.10921,-8.6855 32.64089,-13.89294 14.38648,-4.26649 29.18342,-7.49639 44.44599,-7.29282 10.62634,0.14173 30.68815,-2.28738 42.44922,4.47112 2.27115,1.30511 3.84025,3.38948 5.76038,5.08422 0.75037,2.22549 2.12577,4.35535 2.25109,6.67648 0.91757,16.99435 -24.76649,32.96524 -37.95191,41.65932 -19.61559,11.84428 -40.59906,21.78671 -61.83265,31.10724 -3.30058,1.46851 -6.68979,2.7646 -9.98806,4.23586 -0.19735,0.088 -0.65105,0.45782 -0.58927,0.26898 0.74008,-2.26233 1.3302,-1.35541 3.54131,-0.86335 12.93302,3.4801 25.52437,7.71721 37.40032,13.46699 8.22394,4.81702 17.7803,11.02324 20.63178,20.01582 1.79629,5.66488 0.35568,7.42838 -1.26945,12.9568 -1.67201,2.2153 -3.05201,4.62994 -5.01602,6.64588 -14.93625,15.33109 -44.00648,24.79376 -64.61109,32.03075 -31.58231,10.41025 -64.45185,17.16794 -97.89369,20.39199 -37.00655,0.12372 -22.81869,2.08965 -43.04115,-1.51741 0,0 23.03601,-2.87256 23.03601,-2.87256 l 0,0 c 12.55967,1.84475 11.80932,1.26484 -2.51967,1.41724 33.60999,-2.82204 66.65454,-9.41647 98.38492,-19.77978 20.68325,-7.22995 47.94866,-15.93167 63.36414,-30.93505 1.85166,-1.80215 3.21688,-3.95792 4.82534,-5.93688 1.53596,-4.83055 2.93252,-6.45124 1.23651,-11.42927 -2.92174,-8.57573 -12.38097,-14.24745 -20.32111,-18.73562 -12.14892,-5.55233 -24.93245,-9.66104 -38.0339,-13.06856 -0.94466,-0.35798 -2.13057,-0.40761 -2.83401,-1.07393 -4.54643,-4.30651 8.27006,-6.15626 10.36473,-7.56721 21.6321,-8.94769 42.87866,-18.82622 62.73275,-30.63613 11.84737,-7.72157 37.8697,-23.75971 36.90744,-39.13765 -0.12339,-1.97197 -1.41779,-3.74249 -2.12668,-5.61373 -1.83127,-1.43826 -3.37292,-3.23808 -5.49379,-4.3148 -2.59439,-1.31712 -10.1531,-0.58308 -8.41128,-2.74453 2.25216,-2.79474 15.05379,0.26828 11.51489,-1.10679 -4.15921,-1.6161 -9.09375,-0.11529 -13.60777,0.29358 -12.45832,1.1283 -19.09574,3.27794 -31.23447,6.26873 -14.47617,4.95139 -19.40868,5.94172 -32.75771,13.37353 -23.08852,12.85408 -40.74894,31.384 -55.53966,51.48783 -3.73748,5.48441 -7.69279,10.85552 -11.21245,16.45325 -14.7084,23.39242 -26.23755,48.56717 -33.17005,74.66885 -1.38084,7.73498 -2.01079,9.33211 -2.20544,16.55936 -0.044,1.63062 0.089,3.26155 0.17957,4.89064 0.0491,0.88424 1.22059,2.50818 0.23967,2.64736 -26.5709,3.76975 -28.33624,6.53007 -23.4623,0.0289 4.03516,-12.79749 7.56626,-25.72801 12.45743,-38.30498 9.12277,-25.5692 19.60191,-50.70982 30.58562,-75.68813 5.63434,-13.72999 12.06039,-27.39813 15.48048,-41.73069 0,0 24.11473,0.35501 24.11473,0.35501 z" />
  </g>
  <g
     inkscape:groupmode="layer"
     inkscape:label="Layer 1 copy"
     id="g3447">
    <g
       id="g3449"
       transform="translate(328,10)">
      <path
         style="fill:#000000;fill-opacity:1;fill-rule:nonzero;stroke:none"
         id="path3451"
         d="m 29.573637,352.27798 c 4.817324,-9.63079 12.552728,-17.52833 19.542606,-25.60813 14.022729,-16.4085 28.175161,-32.69595 43.293262,-48.10694 18.921085,-18.89165 39.418835,-36.17021 60.629905,-52.42309 14.37146,-10.36965 29.02621,-20.7546 45.37503,-27.82828 2.65585,-1.14912 5.39863,-2.08586 8.09795,-3.12878 16.14528,-5.12148 34.14627,-6.14576 50.68861,-2.15504 8.13493,1.96249 11.30149,3.78288 19.02224,7.18039 17.11523,8.66624 31.74134,21.47091 42.48811,37.39454 2.23479,3.31131 4.1122,6.85027 6.1683,10.2754 11.52103,21.62245 18.03594,45.39557 24.44818,68.90989 5.0166,17.14149 9.74771,34.38254 13.4249,51.86565 1.09554,5.58817 0.71373,2.97045 1.24569,7.83787 0,0 -17.60553,0.1557 -17.60553,0.1557 l 0,0 c -0.3153,-4.70156 -0.045,-2.14483 -0.93064,-7.65658 -3.22314,-17.48385 -7.77826,-34.68141 -12.6832,-51.76209 -6.37141,-23.37807 -12.83354,-47.02697 -24.44945,-68.44847 -2.05574,-3.36561 -3.93236,-6.84741 -6.16721,-10.09685 -10.79333,-15.69333 -25.47105,-28.19487 -42.56325,-36.5275 -7.9039,-3.29151 -10.84491,-4.96052 -19.14645,-6.73422 -2.93899,-0.62794 -7.31984,1.30019 -8.93072,-1.23695 -1.43721,-2.26361 8.49533,-2.805 8.04237,-0.1622 -0.93076,5.43051 -15.634,-3.83275 -16.21466,3.20865 -2.71366,0.99628 -5.47118,1.8804 -8.14099,2.98884 -16.50147,6.85097 -31.31205,17.12483 -45.78907,27.43018 -21.23572,16.11368 -41.74284,33.29181 -60.5698,52.18989 -14.995865,15.32582 -28.957158,31.58781 -42.703125,48.03826 -6.694131,7.89384 -14.146465,15.627 -18.763394,24.97309 0,0 -17.809664,-0.57323 -17.809664,-0.57323 z" />
      <path
         style="fill:#000000;fill-opacity:1;fill-rule:nonzero;stroke:none"
         id="path3453"
         d="m 86.839164,304.11044 c 15.263646,-7.99907 32.166806,-12.32779 48.701736,-16.83709 36.31384,-10.07164 73.72406,-14.87294 111.14775,-18.41719 39.13631,-3.1371 78.48088,-4.08037 117.72201,-2.74469 8.27718,0.37607 16.54595,0.92708 24.78416,1.81506 0,0 -17.41916,2.56305 -17.41916,2.56305 l 0,0 c -7.90535,-0.89351 -15.8414,-1.46479 -23.7886,-1.83492 -3.79016,-0.13269 -7.58311,-0.20107 -11.37047,-0.39806 -0.61666,-0.0321 2.46741,-0.0963 1.84992,-0.0971 -25.53063,-0.0332 -51.05192,0.80646 -76.49798,2.97023 -37.10565,3.45994 -74.20876,8.17831 -110.18407,18.2717 -16.03721,4.43938 -32.53172,8.66111 -47.27434,16.57429 0,0 -17.670956,-1.86525 -17.670956,-1.86525 z" />
    </g>
    <path
       style="fill:#000000;fill-opacity:1;fill-rule:nonzero;stroke:none"
       id="path3455"
       d="m 146.2407,201.32758 c -7.78315,3.32916 -14.75354,8.28336 -21.7045,13.04557 -17.21378,12.11725 -33.52556,25.42776 -49.57247,39.03197 -18.56832,15.6165 -35.63092,32.85047 -51.72019,50.97836 -10.17372,12.50703 -20.8149,25.17314 -27.55303,39.97833 -1.03381,2.27151 -1.80687,4.65287 -2.7103,6.97931 -2.06973,7.45192 -2.97618,15.63731 2.26974,22.08081 3.32203,4.08041 5.52494,4.68915 10.14091,7.27208 21.38493,8.00776 44.73475,7.91318 67.27165,8.09664 -0.42578,-0.0396 -1.70484,-0.10803 -1.27736,-0.11866 20.98198,-0.5216 41.96357,-0.90953 62.94446,-1.53075 0,0 16.33388,2.53776 16.33388,2.53776 l 0,0 c -31.4711,0.92149 -62.94591,1.96656 -94.43678,1.6982 -22.83127,-0.26441 -46.61262,-0.1346 -68.08332,-8.88489 -4.8153,-2.96993 -7.00215,-3.63211 -10.34922,-8.17602 -5.1929,-7.04979 -4.32976,-15.69705 -2.0818,-23.61706 0.93304,-2.38669 1.734,-4.82933 2.79912,-7.16008 6.83172,-14.94952 17.57877,-27.74507 27.86197,-40.38292 16.14844,-18.17233 33.23403,-35.48601 51.80774,-51.20774 15.93572,-13.61014 32.11877,-26.93914 49.09737,-39.24148 6.81293,-4.82334 13.63994,-9.77108 21.15246,-13.46533 0,0 17.80967,2.0859 17.80967,2.0859 z" />
    <path
       d="m 266.02115,223.50991 c -4.18543,14.41784 -10.80202,28.209 -16.74826,42.10407 -11.36712,24.82991 -21.95692,49.92039 -30.75031,75.57097 -4.42873,12.56552 -8.17002,25.30419 -11.13857,38.2036 -0.10431,0.35019 0.0935,1.0515 -0.31301,1.05059 -8.15968,-0.0183 -16.43283,0.25834 -24.44761,-1.10631 -1.12197,-0.19103 -0.003,-2.03629 0.0122,-3.05432 0.1035,-7.54468 1.38386,-14.44858 2.961,-21.88041 7.70429,-26.2436 19.51544,-51.59077 34.42336,-75.24112 3.55145,-5.63414 7.51173,-11.05567 11.2676,-16.58351 14.77172,-20.27024 32.32421,-39.0484 55.31249,-52.27653 13.36149,-7.68859 18.10921,-8.6855 32.64089,-13.89294 14.38648,-4.26649 29.18342,-7.49639 44.44599,-7.29282 10.62634,0.14173 30.68815,-2.28738 42.44922,4.47112 2.27115,1.30511 3.84025,3.38948 5.76038,5.08422 0.75037,2.22549 2.12577,4.35535 2.25109,6.67648 0.91757,16.99435 -24.76649,32.96524 -37.95191,41.65932 -19.61559,11.84428 -40.59906,21.78671 -61.83265,31.10724 -3.30058,1.46851 -6.68979,2.7646 -9.98806,4.23586 -0.19735,0.088 -0.65105,0.45782 -0.58927,0.26898 0.74008,-2.26233 1.3302,-1.35541 3.54131,-0.86335 12.93302,3.4801 25.52437,7.71721 37.40032,13.46699 8.22394,4.81702 17.7803,11.02324 20.63178,20.01582 1.79629,5.66488 0.35568,7.42838 -1.26945,12.9568 -1.67201,2.2153 -3.05201,4.62994 -5.01602,6.64588 -14.93625,15.33109 -44.00648,24.79376 -64.61109,32.03075 -31.58231,10.41025 -64.45185,17.16794 -97.89369,20.39199 -37.00655,0.12372 -22.81869,2.08965 -43.04115,-1.51741 0,0 23.03601,-2.87256 23.03601,-2.87256 l 0,0 c 12.55967,1.84475 11.80932,1.26484 -2.51967,1.41724 33.60999,-2.82204 66.65454,-9.41647 98.38492,-19.77978 20.68325,-7.22995 47.94866,-15.93167 63.36414,-30.93505 1.85166,-1.80215 3.21688,-3.95792 4.82534,-5.93688 1.53596,-4.83055 2.93252,-6.45124 1.23651,-11.42927 -2.92174,-8.57573 -12.38097,-14.24745 -20.32111,-18.73562 -12.14892,-5.55233 -24.93245,-9.66104 -38.0339,-13.06856 -0.94466,-0.35798 -2.13057,-0.40761 -2.83401,-1.07393 -4.54643,-4.30651 8.27006,-6.15626 10.36473,-7.56721 21.6321,-8.94769 42.87866,-18.82622 62.73275,-30.63613 11.84737,-7.72157 37.8697,-23.75971 36.90744,-39.13765 -0.12339,-1.97197 -1.41779,-3.74249 -2.12668,-5.61373 -1.83127,-1.43826 -3.37292,-3.23808 -5.49379,-4.3148 -2.59439,-1.31712 -10.1531,-0.58308 -8.41128,-2.74453 2.25216,-2.79474 15.05379,0.26828 11.51489,-1.10679 -4.15921,-1.6161 -9.09375,-0.11529 -13.60777,0.29358 -12.45832,1.1283 -19.09574,3.27794 -31.23447,6.26873 -14.47617,4.95139 -19.40868,5.94172 -32.75771,13.37353 -23.08852,12.85408 -40.74894,31.384 -55.53966,51.48783 -3.73748,5.48441 -7.69279,10.85552 -11.21245,16.45325 -14.7084,23.39242 -26.23755,48.56717 -33.17005,74.66885 -1.38084,7.73498 -2.01079,9.33211 -2.20544,16.55936 -0.044,1.63062 0.089,3.26155 0.17957,4.89064 0.0491,0.88424 1.22059,2.50818 0.23967,2.64736 -26.5709,3.76975 -28.33624,6.53007 -23.4623,0.0289 4.03516,-12.79749 7.56626,-25.72801 12.45743,-38.30498 9.12277,-25.5692 19.60191,-50.70982 30.58562,-75.68813 5.63434,-13.72999 12.06039,-27.39813 15.48048,-41.73069 0,0 24.11473,0.35501 24.11473,0.35501 z"
       id="path3457"
       style="fill:#000000;fill-opacity:1;fill-rule:nonzero;stroke:none" />
    <path
       d="m 1337.6216,240.45598 c -10.8498,19.49493 -21.7464,38.92936 -33.4346,57.94 -14.7969,23.60287 -30.5164,46.60406 -45.6241,70.00485 -5.3208,7.54719 -9.6874,15.76526 -15.0542,23.27854 -7.9852,-1.0546 -16.3036,-0.64905 -23.9554,-3.16378 -1.4434,-0.47436 0.2816,-3.03031 0.5678,-4.52241 2.5838,-13.46857 8.1224,-26.06848 13.4747,-38.59909 13.5805,-30.29614 32.2456,-58.01073 55.4813,-81.74972 5.0337,-5.14267 10.4481,-9.89821 15.6723,-14.84731 20.0088,-17.4695 42.3744,-32.00199 66.711,-42.68127 12.6695,-5.55955 16.8955,-6.53604 29.7141,-10.58101 17.8641,-5.3647 34.1487,-5.7933 53.1807,-4.48747 4.0578,0.27841 7.6522,3.03381 8.7871,6.94308 0.5918,2.03898 0.1184,4.24468 0.177,6.36702 -0.9583,2.53551 -1.5748,5.2281 -2.8748,7.60651 -10.1702,18.60532 -34.9326,34.83921 -51.8076,46.91297 -23.9367,16.78299 -50.0643,29.91998 -76.2859,42.66993 -7.6307,3.81387 -15.5718,6.93956 -23.3657,10.38535 -1.8244,0.80654 -1.7552,1.43987 -1.4788,0.0817 0.5481,-0.28733 1.0269,-0.90314 1.6443,-0.86197 1.283,0.0855 2.4457,0.79562 3.6609,1.21574 1.9307,0.6674 3.8553,1.3525 5.7764,2.04668 9.4844,3.42695 18.5954,7.39218 27.7656,11.58744 23.3765,10.67054 44.122,25.64518 62.86,43.07366 6.7218,6.21736 11.5723,13.67517 16.0477,21.54386 0,0 -22.997,1.19024 -22.997,1.19024 l 0,0 c -4.3367,-7.62581 -9.0439,-14.84988 -15.5538,-20.87905 -18.6629,-17.29598 -39.3542,-32.03297 -62.7434,-42.34501 -9.4328,-4.15038 -11.1145,-5.06648 -20.4215,-8.52587 -3.869,-1.43814 -9.8997,-3.4202 -14.0174,-4.74587 -1.3005,-0.41871 -2.7212,-0.55534 -3.9106,-1.22779 -0.8413,-0.47573 -1.327,-1.40577 -1.9904,-2.10865 0.055,-0.60772 -0.1917,-1.32731 0.1639,-1.82314 0.4653,-0.64875 5.205,-2.27995 5.5014,-2.39614 6.9484,-2.72325 13.8135,-5.65608 20.6068,-8.74516 26.4575,-12.49956 52.8056,-25.43582 76.8803,-42.21859 16.5984,-11.86568 40.4379,-27.5081 50.6512,-45.67622 1.1718,-2.08454 1.7482,-4.45167 2.6224,-6.67751 -0.1703,-3.7103 0.7411,-5.98218 -2.9719,-8.201 -1.6336,-0.9762 -7.3163,-1.25636 -5.4591,-1.67156 4.7941,-1.07173 9.9133,-1.35741 14.7317,-0.40139 7.7076,1.52928 -34.6111,0.65316 -23.1997,4.18111 -12.9314,3.86282 -17.3016,4.80216 -30.0783,10.21542 -24.4445,10.35668 -46.9304,24.65599 -67.0308,41.97465 -5.2319,4.89387 -10.6603,9.58595 -15.6958,14.68164 -23.1049,23.3809 -41.5432,50.84969 -54.4899,81.05493 -4.2771,10.50849 -8.4025,20.767 -11.0399,31.82156 -0.4855,2.035 -0.9405,4.08058 -1.2685,6.14681 -0.2106,1.32675 0.9616,3.70298 -0.3449,4.01531 -7.6143,1.82022 -15.6182,1.11166 -23.4274,1.66749 1.7995,-1.50665 3.0434,-3.76424 4.3712,-5.66536 3.9747,-5.69065 7.8946,-11.41957 11.7689,-17.17905 15.5639,-23.1992 31.4491,-46.18737 46.2431,-69.89335 11.3946,-18.80517 21.9911,-38.02066 31.8238,-57.6893 0,0 23.6358,0.95751 23.6358,0.95751 z"
       id="path3463"
       style="fill:#000000;fill-opacity:1;fill-rule:nonzero;stroke:none" />
    <path
       style="fill:#000000;fill-opacity:1;fill-rule:nonzero;stroke:none"
       id="path3517"
       d="m 923.52793,190.77658 c -4.21698,0.79995 -8.43189,1.6108 -12.64727,2.4192 -7.83447,1.46267 -15.65266,2.99196 -23.43534,4.70953 -11.96726,2.56037 -23.54162,6.51954 -35.03641,10.65387 -14.88175,5.35737 -29.12136,12.22135 -43.02931,19.70802 -14.58261,7.80391 -27.59456,17.91807 -39.70062,29.10072 -11.29212,10.48718 -20.68229,22.6854 -28.74991,35.76053 -5.34312,9.64655 -10.28401,19.83221 -12.22653,30.79051 -0.34529,1.94783 -0.45488,3.93016 -0.68232,5.89523 -0.37952,13.14548 4.57909,21.94276 12.61638,31.82178 7.91197,8.98459 17.74828,15.92395 28.79287,20.53379 2.73761,1.14264 5.5675,2.05022 8.35124,3.07534 21.48756,6.99999 44.13862,8.61299 66.54184,10.02859 17.10666,1.07974 34.22572,0.63508 51.32824,-0.1492 0,0 -15.85158,5.47696 -15.85158,5.47696 l 0,0 c -17.13897,0.72251 -34.29375,1.11011 -51.43115,-0.008 -22.5744,-1.47663 -45.39964,-3.18947 -67.00685,-10.40328 -2.82156,-1.06758 -5.69194,-2.01411 -8.46467,-3.20276 -11.22051,-4.81018 -21.16667,-12.01942 -29.17473,-21.23094 -8.2092,-10.30843 -13.25501,-19.58959 -12.90613,-33.16707 0.22449,-2.0339 0.3274,-4.08492 0.67349,-6.10169 1.91276,-11.14647 6.87704,-21.522 12.25434,-31.35337 8.05654,-13.23037 17.44309,-25.59388 28.76682,-36.2343 12.09553,-11.31894 25.08244,-21.605 39.69636,-29.53663 13.85934,-7.55478 28.03915,-14.51453 42.87987,-19.95726 11.43053,-4.17007 22.92096,-8.22976 34.82233,-10.86894 7.72178,-1.73568 15.47093,-3.31824 23.25451,-4.75435 4.14923,-0.80197 8.29886,-1.60198 12.44643,-2.4125 0,0 17.91811,-0.59401 17.91811,-0.59401 z" />
    <g
       id="g4408"
       transform="matrix(0.90901575,-0.02622176,0.02211376,1.0778801,-29.216898,-32.475968)">
      <path
         style="fill:#000000;fill-opacity:1;fill-rule:nonzero;stroke:none"
         id="path3497"
         d="m -364.24706,152.01956 c -6.80069,-0.75159 -13.59278,-1.53564 -20.41003,-2.08331 -14.87023,-1.062 -29.76854,-1.4449 -44.66067,-1.82418 -11.27364,-0.23581 -9.46812,-0.25858 -21.09781,-0.24458 -3.34469,0.005 13.36979,-0.25081 10.03404,0.0339 -4.25304,0.36301 -8.52858,0.10101 -12.79214,0.2015 -12.16363,0.28693 -16.13675,0.53153 -28.49756,1.08264 -37.12834,1.68558 -74.12764,5.70984 -111.07411,10.15272 -42.01794,5.25928 -83.86192,12.16331 -125.60929,19.76237 -40.4114,7.25685 -80.45591,16.81743 -120.15477,28.16998 -30.71626,8.74668 -60.63643,20.67924 -89.70758,35.09486 -20.25297,10.33321 -39.63471,22.7763 -58.53325,36.10019 -9.3181,6.7785 -4.78629,3.44901 -13.59907,9.98171 0,0 -22.4471,-2.64068 -22.4471,-2.64068 l 0,0 c 8.9205,-6.54806 4.3353,-3.20721 13.7585,-10.01686 19.04967,-13.41195 38.58082,-25.95064 58.96861,-36.41074 29.25082,-14.55969 59.36105,-26.61411 90.28535,-35.42407 39.77425,-11.40071 79.88857,-21.0511 120.37941,-28.34863 41.72462,-7.64331 83.54813,-14.57067 125.54214,-19.90417 36.77606,-4.47569 73.59994,-8.59952 110.55711,-10.406 32.02707,-1.53994 64.07944,-2.02276 96.13125,-1.21271 15.02874,0.37811 30.06478,0.76076 45.06906,1.88165 6.93555,0.58741 13.85387,1.37533 20.77957,2.09726 0,0 -22.92166,3.95714 -22.92166,3.95714 z" />
      <path
         style="fill:#000000;fill-opacity:1;fill-rule:nonzero;stroke:none"
         id="path3499"
         d="m -996.33587,299.71491 c 5.75723,2.60713 11.48528,5.30726 17.29094,7.78342 12.65057,5.79483 25.28519,11.6397 37.89268,17.56071 21.96924,10.62876 44.5232,19.40942 67.23296,27.59767 35.88018,12.56225 72.48818,21.97457 109.11959,30.99796 45.71185,11.11368 91.91728,19.10616 138.15402,26.56537 31.31269,4.85077 15.70751,2.50665 46.81513,7.03559 0,0 -20.84721,3.53653 -20.84721,3.53653 l 0,0 c -31.07008,-4.56245 -15.48074,-2.20476 -46.76768,-7.07631 -46.32337,-7.52295 -92.61707,-15.55327 -138.41894,-26.69666 -36.85219,-9.07163 -73.68348,-18.51338 -109.78515,-31.12741 -22.89652,-8.23728 -45.62613,-17.09461 -67.79975,-27.72547 -12.73802,-5.88218 -25.4804,-11.75707 -38.28842,-17.42956 -5.8917,-2.52826 -11.7194,-5.24768 -17.6176,-7.7554 0,0 23.01943,-3.26644 23.01943,-3.26644 z" />
      <path
         style="fill:#000000;fill-opacity:1;fill-rule:nonzero;stroke:none"
         id="path3501"
         d="m -988.24673,281.24654 c 7.96506,2.18222 16.07514,3.55889 24.1438,5.11142 22.85529,3.91228 45.92321,5.73935 68.94413,7.75399 41.03112,3.37629 82.07607,6.53747 123.11814,9.73293 36.18935,2.78258 72.34851,6.06606 108.49643,9.49383 0,0 -21.10003,3.68857 -21.10003,3.68857 l 0,0 c -36.08795,-3.43741 -72.18677,-6.73593 -108.3187,-9.48824 -41.23872,-3.20722 -82.48282,-6.3254 -123.71461,-9.64677 -23.34257,-1.99847 -46.73737,-3.80547 -69.9043,-7.82017 -8.22263,-1.54845 -16.44863,-3.07557 -24.59993,-5.08482 0,0 22.93507,-3.74074 22.93507,-3.74074 z" />
      <path
         style="fill:#000000;fill-opacity:1;fill-rule:nonzero;stroke:none"
         id="path3503"
         d="m -657.76949,289.16025 c 3.06083,4.8077 6.54593,9.23268 10.30939,13.3016 6.02732,6.707 13.57605,11.06751 20.83587,15.65702 6.58159,3.61974 12.90746,7.82258 19.44211,11.54441 0,0 -22.75649,2.94881 -22.75649,2.94881 l 0,0 c -6.48522,-3.85138 -12.89986,-7.86256 -19.41657,-11.64374 -7.39061,-4.71117 -14.93848,-9.37878 -20.99286,-16.33652 -3.84369,-4.3344 -7.55488,-8.91652 -10.58532,-14.06934 0,0 23.16387,-1.40224 23.16387,-1.40224 z" />
      <path
         style="fill:#000000;fill-opacity:1;fill-rule:nonzero;stroke:none"
         id="path3505"
         d="m -414.09771,260.80782 c 5.72432,3.17451 10.54904,7.94935 15.17521,12.91021 7.2479,7.96221 12.00463,17.67071 14.82428,28.69946 2.5688,14.32839 -1.84528,27.47571 -7.21393,40.11145 -8.49389,18.31571 -21.80091,32.29504 -35.57271,45.1238 -14.90395,13.61915 -31.34983,24.58742 -47.84402,35.3187 0,0 -22.05674,-2.74254 -22.05674,-2.74254 l 0,0 c 16.42769,-10.59967 32.81519,-21.42768 47.66499,-34.91351 13.58734,-12.474 26.73806,-26.12312 35.19441,-44.00621 5.1666,-11.97573 9.57653,-24.4668 7.02113,-38.1036 -2.85007,-10.58594 -7.69247,-19.78613 -14.83299,-27.25088 -4.69863,-4.78562 -9.63602,-9.23821 -15.40251,-12.16248 0,0 23.04288,-2.9844 23.04288,-2.9844 z" />
      <path
         style="fill:#000000;fill-opacity:1;fill-rule:nonzero;stroke:none"
         id="path3507"
         d="m -335.88892,152.27457 c -9.3359,1.64128 -18.34648,5.03532 -27.30985,8.38425 -16.0405,6.24108 -31.764,13.53181 -47.28132,21.34921 -9.54926,4.97057 -18.98704,10.21969 -28.40218,15.52344 0,0 -22.43597,-2.94094 -22.43597,-2.94094 l 0,0 c 9.4535,-5.32493 18.93089,-10.59042 28.50533,-15.61577 15.49157,-7.89309 31.2133,-15.1848 47.19987,-21.61085 8.81939,-3.41637 17.66462,-6.794 26.77123,-8.98442 0,0 22.95289,3.89508 22.95289,3.89508 z" />
      <g
         id="g4398">
        <path
           style="fill:#000000;fill-opacity:1;fill-rule:nonzero;stroke:none"
           id="path3588"
           d="m -651.36491,228.97776 c -0.61567,-4.62617 -0.0333,-9.18 1.63269,-13.53686 0.55532,-1.452 1.27653,-2.8315 1.91483,-4.24725 4.97407,-9.36126 12.80391,-16.306 21.69034,-21.64678 2.1759,-1.30773 4.45255,-2.43092 6.67883,-3.64638 10.33034,-4.86537 21.3318,-8.23676 32.68165,-9.32688 9.38296,-0.90121 17.1381,-0.14367 26.89234,0.21041 14.19273,2.17256 28.19547,7.29872 39.13841,17.11054 1.78316,1.59888 3.32164,3.46339 4.98246,5.19509 5.04848,6.60989 8.79657,13.29051 6.69742,21.95935 -1.27594,5.26916 -2.68061,6.40221 -5.72436,10.84616 -1.75166,1.70531 -3.38565,3.54731 -5.25511,5.11593 -9.7281,8.16264 -21.86114,13.15112 -33.91455,16.36989 -3.72429,0.99455 -7.52095,1.67937 -11.28141,2.51904 -3.9976,0.5758 -7.97431,1.33332 -11.99292,1.7274 -4.02656,0.39486 -8.074,0.63825 -12.11899,0.6371 -13.57702,-0.004 -27.24923,-0.1899 -39.8389,-6.06167 -2.78383,-1.29838 -5.27719,-3.1701 -7.9158,-4.75515 -6.20207,-5.70872 -10.98941,-11.0836 -11.78755,-20.0184 -0.19898,-2.22738 0.32521,-4.46094 0.48782,-6.6914 0,0 8.45041,0.0704 8.45041,0.0704 l 0,0 c -0.18473,2.13765 -0.72679,4.27425 -0.55415,6.41297 0.70232,8.70177 5.43116,13.87374 11.49121,19.35873 2.59128,1.53612 5.04086,3.35629 7.77386,4.60834 7.71718,3.53545 11.84744,3.76838 20.19635,5.22038 1.33717,0.23255 2.66296,0.64217 4.01926,0.64902 10.37011,0.0524 13.79787,-0.80627 24.01865,-2.24526 3.72851,-0.82134 7.49236,-1.48938 11.18561,-2.46401 11.88782,-3.13718 23.82729,-8.03432 33.44608,-16.03341 1.8258,-1.51835 3.42469,-3.30259 5.13703,-4.95388 2.97735,-4.27426 4.32845,-5.33241 5.59662,-10.41371 2.09001,-8.37457 -1.59439,-14.8081 -6.4679,-21.19124 -1.62904,-1.69301 -3.1359,-3.51932 -4.88715,-5.07903 -10.87278,-9.68358 -24.80184,-14.61558 -38.86855,-16.65082 -4.23892,-1.71049 -2.00515,-1.04883 -10.86201,-0.266 -11.2642,0.99562 -22.18674,4.29784 -32.45696,9.06146 -2.20748,1.19325 -4.46484,2.29423 -6.62243,3.57976 -8.73829,5.20646 -16.47803,11.97174 -21.34328,21.17382 -0.61008,1.37763 -1.30405,2.71941 -1.83023,4.13289 -1.57748,4.23766 -2.10115,8.68033 -1.27551,13.13696 0,0 -9.11411,0.13251 -9.11411,0.13251 z" />
        <path
           sodipodi:type="arc"
           style="fill:#000000;fill-rule:evenodd;stroke:#000000;stroke-width:1px;stroke-linecap:butt;stroke-linejoin:miter;stroke-opacity:1"
           id="path3618"
           sodipodi:cx="-578"
           sodipodi:cy="223"
           sodipodi:rx="28"
           sodipodi:ry="23"
           d="m -550,223 c 0,12.70255 -12.53603,23 -28,23 -15.46397,0 -28,-10.29745 -28,-23 0,-12.70255 12.53603,-23 28,-23 15.46397,0 28,10.29745 28,23 z"
           transform="translate(-4,-6)" />
      </g>
    </g>
    <g
       id="g4402"
       transform="matrix(2.4187347,0,0,2.4187347,2468.4535,-226.40883)">
      <path
         style="fill:#000000;fill-opacity:1;fill-rule:nonzero;stroke:none"
         id="path4404"
         d="m -651.36491,228.97776 c -0.61567,-4.62617 -0.0333,-9.18 1.63269,-13.53686 0.55532,-1.452 1.27653,-2.8315 1.91483,-4.24725 4.97407,-9.36126 12.80391,-16.306 21.69034,-21.64678 2.1759,-1.30773 4.45255,-2.43092 6.67883,-3.64638 10.33034,-4.86537 21.3318,-8.23676 32.68165,-9.32688 9.38296,-0.90121 17.1381,-0.14367 26.89234,0.21041 14.19273,2.17256 28.19547,7.29872 39.13841,17.11054 1.78316,1.59888 3.32164,3.46339 4.98246,5.19509 5.04848,6.60989 8.79657,13.29051 6.69742,21.95935 -1.27594,5.26916 -2.68061,6.40221 -5.72436,10.84616 -1.75166,1.70531 -3.38565,3.54731 -5.25511,5.11593 -9.7281,8.16264 -21.86114,13.15112 -33.91455,16.36989 -3.72429,0.99455 -7.52095,1.67937 -11.28141,2.51904 -3.9976,0.5758 -7.97431,1.33332 -11.99292,1.7274 -4.02656,0.39486 -8.074,0.63825 -12.11899,0.6371 -13.57702,-0.004 -27.24923,-0.1899 -39.8389,-6.06167 -2.78383,-1.29838 -5.27719,-3.1701 -7.9158,-4.75515 -6.20207,-5.70872 -10.98941,-11.0836 -11.78755,-20.0184 -0.19898,-2.22738 0.32521,-4.46094 0.48782,-6.6914 0,0 8.45041,0.0704 8.45041,0.0704 l 0,0 c -0.18473,2.13765 -0.72679,4.27425 -0.55415,6.41297 0.70232,8.70177 5.43116,13.87374 11.49121,19.35873 2.59128,1.53612 5.04086,3.35629 7.77386,4.60834 7.71718,3.53545 11.84744,3.76838 20.19635,5.22038 1.33717,0.23255 2.66296,0.64217 4.01926,0.64902 10.37011,0.0524 13.79787,-0.80627 24.01865,-2.24526 3.72851,-0.82134 7.49236,-1.48938 11.18561,-2.46401 11.88782,-3.13718 23.82729,-8.03432 33.44608,-16.03341 1.8258,-1.51835 3.42469,-3.30259 5.13703,-4.95388 2.97735,-4.27426 4.32845,-5.33241 5.59662,-10.41371 2.09001,-8.37457 -1.59439,-14.8081 -6.4679,-21.19124 -1.62904,-1.69301 -3.1359,-3.51932 -4.88715,-5.07903 -10.87278,-9.68358 -24.80184,-14.61558 -38.86855,-16.65082 -4.23892,-1.71049 -2.00515,-1.04883 -10.86201,-0.266 -11.2642,0.99562 -22.18674,4.29784 -32.45696,9.06146 -2.20748,1.19325 -4.46484,2.29423 -6.62243,3.57976 -8.73829,5.20646 -16.47803,11.97174 -21.34328,21.17382 -0.61008,1.37763 -1.30405,2.71941 -1.83023,4.13289 -1.57748,4.23766 -2.10115,8.68033 -1.27551,13.13696 0,0 -9.11411,0.13251 -9.11411,0.13251 z" />
      <path
         sodipodi:type="arc"
         style="fill:#000000;fill-rule:evenodd;stroke:#000000;stroke-width:1px;stroke-linecap:butt;stroke-linejoin:miter;stroke-opacity:1"
         id="path4406"
         sodipodi:cx="-578"
         sodipodi:cy="223"
         sodipodi:rx="28"
         sodipodi:ry="23"
         d="m -550,223 c 0,12.70255 -12.53603,23 -28,23 -15.46397,0 -28,-10.29745 -28,-23 0,-12.70255 12.53603,-23 28,-23 15.46397,0 28,10.29745 28,23 z"
         transform="translate(-4,-6)" />
    </g>
    <g
       id="g4445"
       transform="matrix(1,0,0.01487251,1.0371813,3.3346509,-29.663373)">
      <path
         d="m 1763.9049,51.548871 c -6.7438,2.951227 -13.5073,5.833865 -20.096,9.167453 -10.4431,5.484398 -20.8703,11.004561 -31.34,16.431721 -19.815,9.503103 -39.138,20.107204 -58.2943,31.028735 -22.3874,12.70111 -43.6075,27.44784 -64.6699,42.4607 -22.924,16.5144 -44.0542,35.55268 -64.1992,55.72664 -12.8966,13.70534 -24.224,28.99368 -32.7886,46.18606 -5.2788,10.59674 -6.0087,13.57149 -9.9846,24.57084 -5.3499,18.94122 -9.2219,38.97584 -7.3456,58.86642 0.3445,3.65157 1.0676,7.25092 1.6015,10.87639 5.6568,27.33402 23.0138,45.20649 41.4765,63.54625 23.9475,24.63228 49.6716,47.19368 75.778,69.13993 18.5347,15.40474 37.2767,30.63445 57.0346,44.22873 8.387,5.77056 22.4894,14.55717 31.0382,19.95632 20.2475,12.62795 40.9404,24.3962 61.5091,36.40585 0,0 -21.7874,2.50098 -21.7874,2.50098 l 0,0 c -20.5142,-12.04231 -41.1306,-23.88762 -61.3464,-36.50147 -9.3613,-5.9209 -21.9711,-13.75817 -31.1225,-20.09249 -19.7484,-13.66921 -38.4837,-28.95261 -57.0299,-44.39456 -26.1848,-22.03869 -52.0045,-44.66494 -76.1026,-69.30515 -18.838,-18.77604 -36.2937,-37.1647 -41.9348,-65.11472 -0.5305,-3.7143 -1.2559,-7.40271 -1.5914,-11.1429 -1.814,-20.22852 2.1095,-40.58173 7.5208,-59.85044 3.9512,-10.89271 4.9095,-14.4427 10.0975,-24.94336 8.5973,-17.40128 19.9418,-32.94474 32.9068,-46.8648 20.1604,-20.2607 41.2187,-39.48621 64.1501,-56.12515 21.0703,-15.03301 42.1946,-29.96609 64.5901,-42.70223 19.043,-10.917345 38.2111,-21.614185 57.8921,-31.171612 10.375,-5.384325 20.6436,-10.996809 30.9722,-16.479951 6.5233,-3.43864 13.2451,-6.347729 19.9699,-9.295749 0,0 23.0958,2.891563 23.0958,2.891563 z"
         id="path3026"
         style="fill:#000000;fill-opacity:1;fill-rule:nonzero;stroke:none" />
      <path
         d="m 1610.3485,311.99528 c 28.3616,0.16678 56.7212,-0.37156 85.0825,-0.56982 35.1299,-0.37813 70.2683,-0.43364 105.3943,0.36609 12.3749,0.46114 24.8356,0.23229 37.1542,1.68328 0,0 -22.7172,4.33446 -22.7172,4.33446 l 0,0 c -12.0377,-1.13034 -24.1287,-1.36091 -36.206,-1.67899 -34.9398,-0.86072 -69.8942,-0.8029 -104.8387,-0.40788 -28.8446,0.23562 -57.6836,0.71801 -86.5278,0.94635 0,0 22.6587,-4.67349 22.6587,-4.67349 z"
         id="path3044"
         style="fill:#000000;fill-opacity:1;fill-rule:nonzero;stroke:none" />
      <path
         d="m 1764.2472,46.5974 c -9.4451,9.793285 -17.1648,21.130756 -25.0046,32.256714 -14.1094,19.446744 -26.7281,39.927436 -38.4062,60.969876 -11.0227,20.52484 -20.903,43.12937 -20.978,67.01797 -0.014,4.33385 0.6626,8.6413 0.9939,12.96195 3.2653,17.10953 12.3604,31.7623 24.0744,44.2232 4.1539,4.41858 14.3047,13.20795 18.8303,17.2095 12.0287,10.3106 6.1207,5.25618 17.7232,15.16449 0,0 -22.3406,1.99251 -22.3406,1.99251 l 0,0 c -11.4991,-9.93307 -5.6389,-4.86155 -17.5793,-15.21591 -16.2274,-14.49622 -32.3238,-29.35396 -39.8408,-50.73427 -1.4194,-4.03757 -2.0804,-8.31254 -3.1205,-12.4688 -0.3148,-4.44003 -0.9766,-8.86858 -0.9443,-13.3201 0.1756,-24.1694 9.9233,-47.16194 21.0435,-67.98831 11.5226,-21.12195 24.0065,-41.681722 37.9508,-61.239928 7.7221,-11.212558 15.4124,-22.519094 24.4419,-32.68946 0,0 23.1563,1.860568 23.1563,1.860568 z"
         id="path3048"
         style="fill:#000000;fill-opacity:1;fill-rule:nonzero;stroke:none" />
      <path
         d="m 1691.9599,125.51773 c -6.0318,1.42756 -11.9651,3.21025 -17.8448,5.18352 -11.0002,3.84995 -21.7664,8.31631 -32.3975,13.11506 -11.3538,5.15427 -22.1283,11.4539 -32.4775,18.44622 -9.985,6.8459 -19.0887,14.915 -27.7698,23.3851 -7.2656,7.22477 -13.0385,15.70356 -18.1824,24.57241 -3.7572,6.49621 -6.7985,13.30929 -7.5762,20.85603 -0.1122,6.8378 3.4648,11.47871 8.6359,15.31705 9.2971,5.68519 20.1239,7.4978 30.7118,8.82381 -4.3818,0.55664 20.0489,0.62066 15.0334,0.73471 -4.7056,0.10707 -9.4229,0.23596 -14.1204,-0.0675 -2.9344,-0.18955 5.8795,-0.1423 8.8168,-0.27511 7.7539,-0.35061 10.2876,-0.63864 18.0307,-1.28855 8.7275,-0.74397 17.3878,-2.04275 26.0377,-3.40562 0,0 22.4565,3.26599 22.4565,3.26599 l 0,0 c -8.6776,1.41482 -17.3662,2.76284 -26.1249,3.55797 -24.1548,2.1748 -48.5397,3.03094 -72.7233,0.82115 -10.8274,-1.56646 -21.9477,-3.60929 -31.1528,-10.03585 -5.4111,-4.67689 -8.9687,-10.18719 -8.7781,-17.69623 0.8137,-7.88803 3.7731,-15.06469 7.7342,-21.86051 5.2065,-9.06231 11.0265,-17.75297 18.3508,-25.19927 8.6827,-8.61147 17.8438,-16.77658 27.8248,-23.79708 10.356,-7.14021 21.1558,-13.56085 32.5499,-18.83898 10.5888,-4.84547 21.2993,-9.38 32.2323,-13.35988 5.8041,-2.02971 11.6455,-3.87286 17.5754,-5.4708 0,0 23.1575,3.21633 23.1575,3.21633 z"
         id="path3210"
         style="fill:#000000;fill-opacity:1;fill-rule:nonzero;stroke:none" />
      <path
         style="fill:#000000;fill-opacity:1;fill-rule:nonzero;stroke:none"
         id="path3487"
         d="m 1764.2472,46.5974 c -9.4451,9.793285 -17.1648,21.130756 -25.0046,32.256714 -14.1094,19.446744 -26.7281,39.927436 -38.4062,60.969876 -11.0227,20.52484 -20.903,43.12937 -20.978,67.01797 -0.014,4.33385 0.6626,8.6413 0.9939,12.96195 3.2653,17.10953 12.3604,31.7623 24.0744,44.2232 4.1539,4.41858 14.3047,13.20795 18.8303,17.2095 12.0287,10.3106 6.1207,5.25618 17.7232,15.16449 0,0 -22.3406,1.99251 -22.3406,1.99251 l 0,0 c -11.4991,-9.93307 -5.6389,-4.86155 -17.5793,-15.21591 -16.2274,-14.49622 -32.3238,-29.35396 -39.8408,-50.73427 -1.4194,-4.03757 -2.0804,-8.31254 -3.1205,-12.4688 -0.3148,-4.44003 -0.9766,-8.86858 -0.9443,-13.3201 0.1756,-24.1694 9.9233,-47.16194 21.0435,-67.98831 11.5226,-21.12195 24.0065,-41.681722 37.9508,-61.239928 7.7221,-11.212558 15.4124,-22.519094 24.4419,-32.68946 0,0 23.1563,1.860568 23.1563,1.860568 z" />
      <path
         style="fill:#000000;fill-opacity:1;fill-rule:nonzero;stroke:none"
         id="path3491"
         d="m 1691.9599,125.51773 c -6.0318,1.42756 -11.9651,3.21025 -17.8448,5.18352 -11.0002,3.84995 -21.7664,8.31631 -32.3975,13.11506 -11.3538,5.15427 -22.1283,11.4539 -32.4775,18.44622 -9.985,6.8459 -19.0887,14.915 -27.7698,23.3851 -7.2656,7.22477 -13.0385,15.70356 -18.1824,24.57241 -3.7572,6.49621 -6.7985,13.30929 -7.5762,20.85603 -0.1122,6.8378 3.4648,11.47871 8.6359,15.31705 9.2971,5.68519 20.1239,7.4978 30.7118,8.82381 -4.3818,0.55664 20.0489,0.62066 15.0334,0.73471 -4.7056,0.10707 -9.4229,0.23596 -14.1204,-0.0675 -2.9344,-0.18955 5.8795,-0.1423 8.8168,-0.27511 7.7539,-0.35061 10.2876,-0.63864 18.0307,-1.28855 8.7275,-0.74397 17.3878,-2.04275 26.0377,-3.40562 0,0 22.4565,3.26599 22.4565,3.26599 l 0,0 c -8.6776,1.41482 -17.3662,2.76284 -26.1249,3.55797 -24.1548,2.1748 -48.5397,3.03094 -72.7233,0.82115 -10.8274,-1.56646 -21.9477,-3.60929 -31.1528,-10.03585 -5.4111,-4.67689 -8.9687,-10.18719 -8.7781,-17.69623 0.8137,-7.88803 3.7731,-15.06469 7.7342,-21.86051 5.2065,-9.06231 11.0265,-17.75297 18.3508,-25.19927 8.6827,-8.61147 17.8438,-16.77658 27.8248,-23.79708 10.356,-7.14021 21.1558,-13.56085 32.5499,-18.83898 10.5888,-4.84547 21.2993,-9.38 32.2323,-13.35988 5.8041,-2.02971 11.6455,-3.87286 17.5754,-5.4708 0,0 23.1575,3.21633 23.1575,3.21633 z" />
      <g
         transform="matrix(1,0,0,-1,324,1063.1304)"
         id="g4441">
        <path
           style="fill:#000000;fill-opacity:1;fill-rule:nonzero;stroke:none"
           id="path4437"
           d="m 1440.2472,484.5974 c -9.4451,9.79329 -17.1648,21.13076 -25.0046,32.25671 -14.1094,19.44675 -26.7281,39.92744 -38.4062,60.96988 -11.0227,20.52484 -20.903,43.12937 -20.978,67.01797 -0.014,4.33385 0.6626,8.6413 0.9939,12.96195 3.2653,17.10953 12.3604,31.7623 24.0744,44.2232 4.1539,4.41858 14.3047,13.20795 18.8303,17.2095 12.0287,10.3106 6.1207,5.25618 17.7232,15.16449 0,0 -22.3406,1.99251 -22.3406,1.99251 l 0,0 c -11.4991,-9.93307 -5.6389,-4.86155 -17.5793,-15.21591 -16.2274,-14.49622 -32.3238,-29.35396 -39.8408,-50.73427 -1.4194,-4.03757 -2.0804,-8.31254 -3.1205,-12.4688 -0.3148,-4.44003 -0.9766,-8.86858 -0.9443,-13.3201 0.1756,-24.1694 9.9233,-47.16194 21.0435,-67.98831 11.5226,-21.12195 24.0065,-41.68172 37.9508,-61.23993 7.7221,-11.21256 15.4124,-22.51909 24.4419,-32.68946 0,0 23.1563,1.86057 23.1563,1.86057 z" />
        <path
           style="fill:#000000;fill-opacity:1;fill-rule:nonzero;stroke:none"
           id="path4439"
           d="m 1367.9599,563.51773 c -6.0318,1.42756 -11.9651,3.21025 -17.8448,5.18352 -11.0002,3.84995 -21.7664,8.31631 -32.3975,13.11506 -11.3538,5.15427 -22.1283,11.4539 -32.4775,18.44622 -9.985,6.8459 -19.0887,14.915 -27.7698,23.3851 -7.2656,7.22477 -13.0385,15.70356 -18.1824,24.57241 -3.7572,6.49621 -6.7985,13.30929 -7.5762,20.85603 -0.1122,6.8378 3.4648,11.47871 8.6359,15.31705 9.2971,5.68519 20.1239,7.4978 30.7118,8.82381 -4.3818,0.55664 20.0489,0.62066 15.0334,0.73471 -4.7056,0.10707 -9.4229,0.23596 -14.1204,-0.0675 -2.9344,-0.18955 5.8795,-0.1423 8.8168,-0.27511 7.7539,-0.35061 10.2876,-0.63864 18.0307,-1.28855 8.7275,-0.74397 17.3878,-2.04275 26.0377,-3.40562 0,0 22.4565,3.26599 22.4565,3.26599 l 0,0 c -8.6776,1.41482 -17.3662,2.76284 -26.1249,3.55797 -24.1548,2.1748 -48.5397,3.03094 -72.7233,0.82115 -10.8274,-1.56646 -21.9477,-3.60929 -31.1528,-10.03585 -5.4111,-4.67689 -8.9687,-10.18719 -8.7781,-17.69623 0.8137,-7.88803 3.7731,-15.06469 7.7342,-21.86051 5.2065,-9.06231 11.0265,-17.75297 18.3508,-25.19927 8.6827,-8.61147 17.8438,-16.77658 27.8248,-23.79708 10.356,-7.14021 21.1558,-13.56085 32.5499,-18.83898 10.5888,-4.84547 21.2993,-9.38 32.2323,-13.35988 5.8041,-2.02971 11.6455,-3.87286 17.5754,-5.4708 0,0 23.1575,3.21633 23.1575,3.21633 z" />
      </g>
    </g>
  </g>
</svg>
